<?xml version="1.0"?>
<svg xmlns="http://www.w3.org/2000/svg" height="512px" viewBox="0 0 512 512" width="512px" class=""><g><path d="m105 332h286c66.71875 0 121-53.832031 121-120 0-73.933594-63.261719-124.453125-129.03125-120.679688-18.914062-54.300781-69.621094-91.320312-126.96875-91.320312-69.410156 0-126.753906 53.039062-134.183594 121h-16.816406c-57.898438 0-105 47.550781-105 106 0 57.898438 47.101562 105 105 105zm0-181c20.378906 0 40.070312 8.007812 54.03125 21.96875 5.859375 5.855469 15.355469 5.855469 21.214844 0 5.859375-5.859375 5.859375-15.355469 0-21.214844-8.433594-8.433594-18.335938-15.308594-29.140625-20.410156 2.421875-56.296875 48.542969-101.34375 104.894531-101.34375 43.019531 0 81.257812 26.964844 97.082031 67.003906-17.234375 5.695313-33.28125 15.488282-46.933593 29.144532-5.859376 5.855468-5.859376 15.355468 0 21.210937 5.855468 5.859375 15.355468 5.859375 21.210937 0 56.082031-56.074219 154.640625-15.773437 154.640625 64.640625 0 49.625-40.820312 90-91 90h-286c-41.355469 0-75-33.644531-75-75 0-41.90625 33.644531-76 75-76zm0 0" data-original="#000000" class="active-path" data-old_color="#000000" fill="#FFFFFF"/><path d="m470.953125 399.5c-4.144531-7.175781-13.316406-9.632812-20.492187-5.488281l-29.460938 17.007812v-34.019531c0-8.285156-6.714844-15-15-15s-15 6.714844-15 15v34.019531l-29.460938-17.011719c-7.175781-4.140624-16.351562-1.683593-20.492187 5.492188s-1.683594 16.347656 5.492187 20.488281l29.460938 17.011719-29.460938 17.011719c-7.175781 4.140625-9.632812 13.3125-5.488281 20.488281 4.152344 7.195312 13.332031 9.621094 20.488281 5.488281l29.460938-17.007812v34.019531c0 8.285156 6.714844 15 15 15s15-6.714844 15-15v-34.019531l29.460938 17.011719c7.152343 4.125 16.335937 1.707031 20.492187-5.492188 4.140625-7.175781 1.683594-16.347656-5.492187-20.488281l-29.460938-17.011719 29.460938-17.011719c7.175781-4.140625 9.632812-13.3125 5.492187-20.488281zm0 0" data-original="#000000" class="active-path" data-old_color="#000000" fill="#FFFFFF"/><path d="m256 482c-8.285156 0-15 6.714844-15 15s6.714844 15 15 15c24.8125 0 45-20.1875 45-45s-20.1875-45-45-45h-211c-8.285156 0-15 6.714844-15 15s6.714844 15 15 15h211c8.269531 0 15 6.730469 15 15s-6.730469 15-15 15zm0 0" data-original="#000000" class="active-path" data-old_color="#000000" fill="#FFFFFF"/><path d="m45 392h121c8.285156 0 15-6.714844 15-15s-6.714844-15-15-15h-121c-8.285156 0-15 6.714844-15 15s6.714844 15 15 15zm0 0" data-original="#000000" class="active-path" data-old_color="#000000" fill="#FFFFFF"/><path d="m286 362h-60c-8.285156 0-15 6.714844-15 15s6.714844 15 15 15h60c8.285156 0 15-6.714844 15-15s-6.714844-15-15-15zm0 0" data-original="#000000" class="active-path" data-old_color="#000000" fill="#FFFFFF"/></g> </svg>
