<?xml version="1.0"?>
<svg xmlns="http://www.w3.org/2000/svg" height="512px" viewBox="0 -2 511.99968 511" width="512px" class=""><g><path d="m304.179688 124.894531-4.375-16.9375c-34.773438 8.96875-59.0625 40.335938-59.039063 76.246094h17.496094c-.011719-27.925781 18.875-52.324219 45.917969-59.308594zm0 0" data-original="#000000" class="active-path" data-old_color="#000000" fill="#FFFFFF"/><path d="m415.722656 289.179688h34.988282v17.492187h-34.988282zm0 0" data-original="#000000" class="active-path" data-old_color="#000000" fill="#FFFFFF"/><path d="m380.730469 289.179688h17.496093v17.492187h-17.496093zm0 0" data-original="#000000" class="active-path" data-old_color="#000000" fill="#FFFFFF"/><path d="m107.289062 184.203125c33.820313 0 61.238282-27.414063 61.238282-61.234375s-27.417969-61.234375-61.238282-61.234375c-33.816406 0-61.234374 27.414063-61.234374 61.234375.039062 33.804688 27.433593 61.195312 61.234374 61.234375zm0-104.972656c24.15625 0 43.742188 19.582031 43.742188 43.738281s-19.582031 43.738281-43.742188 43.738281c-24.15625 0-43.738281-19.582031-43.738281-43.738281.03125-24.144531 19.59375-43.710938 43.738281-43.738281zm0 0" data-original="#000000" class="active-path" data-old_color="#000000" fill="#FFFFFF"/><path d="m85.421875 131.71875c4.832031 0 8.746094-3.917969 8.746094-8.75 0-7.246094 5.875-13.121094 13.121093-13.121094 4.832032 0 8.75-3.917968 8.75-8.746094 0-4.832031-3.917968-8.75-8.75-8.75-16.90625 0-30.617187 13.707032-30.617187 30.617188 0 4.832031 3.917969 8.75 8.75 8.75zm0 0" data-original="#000000" class="active-path" data-old_color="#000000" fill="#FFFFFF"/><path d="m107.289062 44.238281c4.832032 0 8.75-3.917969 8.75-8.746093v-26.246094c0-4.828125-3.917968-8.746094-8.75-8.746094-4.828124 0-8.746093 3.917969-8.746093 8.746094v26.246094c0 4.832031 3.917969 8.746093 8.746093 8.746093zm0 0" data-original="#000000" class="active-path" data-old_color="#000000" fill="#FFFFFF"/><path d="m4.425781 73.683594 22.742188 13.121094c4.167969 2.445312 9.527343 1.046874 11.972656-3.121094 2.441406-4.167969 1.042969-9.527344-3.125-11.972656-.03125-.019532-.066406-.039063-.097656-.054688l-22.746094-13.125c-4.167969-2.441406-9.527344-1.042969-11.96875 3.125-2.445313 4.167969-1.046875 9.527344 3.121094 11.96875.035156.019531.066406.039062.101562.058594zm0 0" data-original="#000000" class="active-path" data-old_color="#000000" fill="#FFFFFF"/><path d="m8.808594 188.578125c1.535156.003906 3.042968-.402344 4.375-1.171875l22.742187-13.121094c4.167969-2.445312 5.566407-7.804687 3.121094-11.972656-2.417969-4.128906-7.707031-5.546875-11.867187-3.179688l-22.746094 13.121094c-4.183594 2.417969-5.617188 7.765625-3.199219 11.949219 1.5625 2.707031 4.449219 4.375 7.574219 4.375zm0 0" data-original="#000000" class="active-path" data-old_color="#000000" fill="#FFFFFF"/><path d="m116.039062 236.691406v-26.242187c0-4.832031-3.917968-8.75-8.746093-8.75-4.832031 0-8.75 3.917969-8.75 8.75v26.242187c0 4.832032 3.917969 8.746094 8.75 8.746094 4.828125 0 8.746093-3.914062 8.746093-8.746094zm0 0" data-original="#000000" class="active-path" data-old_color="#000000" fill="#FFFFFF"/><path d="m178.671875 174.285156 8.03125 4.636719c-44.011719 12.910156-69.222656 59.058594-56.3125 103.070313 10.386719 35.394531 42.871094 59.699218 79.757813 59.671874h218.695312c45.894531.03125 83.125-37.152343 83.15625-83.050781.027344-44.363281-34.792969-80.925781-79.105469-83.0625-4.726562-62.589843-59.292969-109.5-121.882812-104.773437-54.035157 4.078125-97.675781 45.738281-104.257813 99.527344l-19.332031-11.164063c-4.199219-2.386719-9.542969-.917969-11.929687 3.28125-2.363282 4.160156-.949219 9.449219 3.179687 11.871094zm31.476563 18.667969h13.121093v-8.75c0-53.144531 43.082031-96.226563 96.226563-96.226563 53.144531 0 96.226562 43.082032 96.226562 96.226563v8.75h13.121094c36.234375 0 65.609375 29.371094 65.609375 65.605469s-29.375 65.609375-65.609375 65.609375h-218.695312c-36.234376 0-65.609376-29.375-65.609376-65.609375s29.375-65.605469 65.609376-65.605469zm0 0" data-original="#000000" class="active-path" data-old_color="#000000" fill="#FFFFFF"/><path d="m183.054688 87.976562c1.535156.003907 3.046874-.398437 4.375-1.171874l22.742187-13.121094c4.203125-2.386719 5.671875-7.726563 3.28125-11.925782-2.386719-4.203124-7.726563-5.671874-11.925781-3.28125-.035156.019532-.066406.039063-.101563.054688l-22.746093 13.125c-4.183594 2.414062-5.617188 7.765625-3.199219 11.949219 1.5625 2.707031 4.449219 4.371093 7.574219 4.371093zm0 0" data-original="#000000" class="active-path" data-old_color="#000000" fill="#FFFFFF"/><path d="m249.511719 402.898438c4.832031 0 8.75-3.914063 8.75-8.746094v-26.246094c0-4.828125-3.917969-8.746094-8.75-8.746094s-8.746094 3.917969-8.746094 8.746094v26.246094c0 4.832031 3.914063 8.746094 8.746094 8.746094zm0 0" data-original="#000000" class="active-path" data-old_color="#000000" fill="#FFFFFF"/><path d="m240.765625 499.125c0 4.832031 3.914063 8.746094 8.746094 8.746094s8.75-3.914063 8.75-8.746094v-8.746094c0-4.832031-3.917969-8.75-8.75-8.75s-8.746094 3.917969-8.746094 8.75zm0 0" data-original="#000000" class="active-path" data-old_color="#000000" fill="#FFFFFF"/><path d="m240.765625 455.386719c0 4.832031 3.914063 8.746093 8.746094 8.746093s8.75-3.914062 8.75-8.746093v-26.242188c0-4.832031-3.917969-8.75-8.75-8.75s-8.746094 3.917969-8.746094 8.75zm0 0" data-original="#000000" class="active-path" data-old_color="#000000" fill="#FFFFFF"/><path d="m188.277344 499.125c0 4.832031 3.917968 8.746094 8.75 8.746094 4.828125 0 8.746094-3.914063 8.746094-8.746094v-26.242188c0-4.832031-3.917969-8.75-8.746094-8.75-4.832032 0-8.75 3.917969-8.75 8.75zm0 0" data-original="#000000" class="active-path" data-old_color="#000000" fill="#FFFFFF"/><path d="m188.277344 437.890625c0 4.832031 3.917968 8.746094 8.75 8.746094 4.828125 0 8.746094-3.914063 8.746094-8.746094v-17.496094c0-4.832031-3.917969-8.746093-8.746094-8.746093-4.832032 0-8.75 3.914062-8.75 8.746093zm0 0" data-original="#000000" class="active-path" data-old_color="#000000" fill="#FFFFFF"/><path d="m197.027344 359.160156c-4.832032 0-8.75 3.917969-8.75 8.746094v17.496094c0 4.832031 3.917968 8.75 8.75 8.75 4.828125 0 8.746094-3.917969 8.746094-8.75v-17.496094c0-4.828125-3.917969-8.746094-8.746094-8.746094zm0 0" data-original="#000000" class="active-path" data-old_color="#000000" fill="#FFFFFF"/><path d="m354.488281 402.898438c4.828125 0 8.746094-3.914063 8.746094-8.746094v-26.246094c0-4.828125-3.917969-8.746094-8.746094-8.746094-4.832031 0-8.75 3.917969-8.75 8.746094v26.246094c0 4.832031 3.917969 8.746094 8.75 8.746094zm0 0" data-original="#000000" class="active-path" data-old_color="#000000" fill="#FFFFFF"/><path d="m345.738281 499.125c0 4.832031 3.917969 8.746094 8.75 8.746094 4.828125 0 8.746094-3.914063 8.746094-8.746094v-8.746094c0-4.832031-3.917969-8.75-8.746094-8.75-4.832031 0-8.75 3.917969-8.75 8.75zm0 0" data-original="#000000" class="active-path" data-old_color="#000000" fill="#FFFFFF"/><path d="m345.738281 455.386719c0 4.832031 3.917969 8.746093 8.75 8.746093 4.828125 0 8.746094-3.914062 8.746094-8.746093v-26.242188c0-4.832031-3.917969-8.75-8.746094-8.75-4.832031 0-8.75 3.917969-8.75 8.75zm0 0" data-original="#000000" class="active-path" data-old_color="#000000" fill="#FFFFFF"/><path d="m293.25 499.125c0 4.832031 3.917969 8.746094 8.75 8.746094s8.746094-3.914063 8.746094-8.746094v-26.242188c0-4.832031-3.914063-8.75-8.746094-8.75s-8.75 3.917969-8.75 8.75zm0 0" data-original="#000000" class="active-path" data-old_color="#000000" fill="#FFFFFF"/><path d="m293.25 437.890625c0 4.832031 3.917969 8.746094 8.75 8.746094s8.746094-3.914063 8.746094-8.746094v-17.496094c0-4.832031-3.914063-8.746093-8.746094-8.746093s-8.75 3.914062-8.75 8.746093zm0 0" data-original="#000000" class="active-path" data-old_color="#000000" fill="#FFFFFF"/><path d="m302 394.152344c4.832031 0 8.746094-3.917969 8.746094-8.75v-17.496094c0-4.828125-3.914063-8.746094-8.746094-8.746094s-8.75 3.917969-8.75 8.746094v17.496094c0 4.832031 3.917969 8.75 8.75 8.75zm0 0" data-original="#000000" class="active-path" data-old_color="#000000" fill="#FFFFFF"/><path d="m468.207031 367.90625c0-4.828125-3.914062-8.746094-8.746093-8.746094-4.832032 0-8.75 3.917969-8.75 8.746094v26.246094c0 4.832031 3.917968 8.746094 8.75 8.746094 4.832031 0 8.746093-3.914063 8.746093-8.746094zm0 0" data-original="#000000" class="active-path" data-old_color="#000000" fill="#FFFFFF"/><path d="m459.460938 481.628906c-4.832032 0-8.75 3.917969-8.75 8.75v8.746094c0 4.832031 3.917968 8.746094 8.75 8.746094 4.832031 0 8.746093-3.914063 8.746093-8.746094v-8.746094c0-4.832031-3.914062-8.75-8.746093-8.75zm0 0" data-original="#000000" class="active-path" data-old_color="#000000" fill="#FFFFFF"/><path d="m468.207031 429.144531c0-4.832031-3.914062-8.75-8.746093-8.75-4.832032 0-8.75 3.917969-8.75 8.75v26.242188c0 4.832031 3.917968 8.746093 8.75 8.746093 4.832031 0 8.746093-3.914062 8.746093-8.746093zm0 0" data-original="#000000" class="active-path" data-old_color="#000000" fill="#FFFFFF"/><path d="m406.972656 464.132812c-4.832031 0-8.746094 3.917969-8.746094 8.75v26.242188c0 4.832031 3.914063 8.746094 8.746094 8.746094 4.832032 0 8.75-3.914063 8.75-8.746094v-26.242188c0-4.832031-3.917968-8.75-8.75-8.75zm0 0" data-original="#000000" class="active-path" data-old_color="#000000" fill="#FFFFFF"/><path d="m415.722656 420.394531c0-4.832031-3.917968-8.746093-8.75-8.746093-4.832031 0-8.746094 3.914062-8.746094 8.746093v17.496094c0 4.832031 3.914063 8.746094 8.746094 8.746094 4.832032 0 8.75-3.914063 8.75-8.746094zm0 0" data-original="#000000" class="active-path" data-old_color="#000000" fill="#FFFFFF"/><path d="m415.722656 367.90625c0-4.828125-3.917968-8.746094-8.75-8.746094-4.832031 0-8.746094 3.917969-8.746094 8.746094v17.496094c0 4.832031 3.914063 8.75 8.746094 8.75 4.832032 0 8.75-3.917969 8.75-8.75zm0 0" data-original="#000000" class="active-path" data-old_color="#000000" fill="#FFFFFF"/></g> </svg>
