<?xml version="1.0"?>
<svg xmlns="http://www.w3.org/2000/svg" height="512px" viewBox="0 0 512 512" width="512px"><g><path d="m504.5 248.5h-38.71875l-46.703125-17.546875c-2.820313-1.0625-4.777344-3.367187-5.367187-6.324219-.589844-2.957031.335937-5.835937 2.539062-7.894531l37.429688-35.015625c2.28125-2.136719 3-5.460938 1.804687-8.347656-1.195313-2.886719-4.0625-4.722656-7.179687-4.625l-51.226563 1.707031c-3 .101563-5.703125-1.28125-7.378906-3.789063-1.671875-2.507812-1.921875-5.519531-.675781-8.265624l20.617187-45.433594 27.378906-27.378906c2.925781-2.929688 2.925781-7.675782 0-10.605469-2.929687-2.929688-7.679687-2.929688-10.609375 0l-27.375 27.378906-45.433594 20.617187c-2.746093 1.246094-5.757812 1-8.265624-.675781-2.507813-1.675781-3.886719-4.367187-3.789063-7.378906l1.707031-51.226563c.105469-3.121093-1.738281-5.980468-4.625-7.175781-2.886718-1.199219-6.214844-.480469-8.347656 1.804688l-35.015625 37.425781c-2.058594 2.203125-4.9375 3.125-7.894531 2.539062-2.957032-.589843-5.261719-2.542968-6.320313-5.367187l-17.550781-46.703125v-38.71875c0-4.140625-3.359375-7.5-7.5-7.5s-7.5 3.359375-7.5 7.5v38.71875l-17.546875 46.703125c-1.0625 2.824219-3.367187 4.777344-6.324219 5.367187-2.957031.589844-5.835937-.335937-7.894531-2.539062l-35.015625-37.429688c-2.136719-2.28125-5.460938-3-8.347656-1.804687-2.886719 1.195313-4.730469 4.054687-4.628906 7.179687l1.707031 51.226563c.101562 3.011719-1.277344 5.699219-3.789063 7.375-2.503906 1.675781-5.515625 1.921875-8.265625.675781l-45.429687-20.617187-27.378906-27.375c-2.929688-2.929688-7.675782-2.929688-10.605469 0-2.929688 2.929687-2.929688 7.675781 0 10.605469l27.378906 27.378906 20.613281 45.433594c1.246094 2.746093 1 5.757812-.675781 8.265624-1.675781 2.507813-4.371094 3.886719-7.375 3.785157l-51.226563-1.703125c-3.125-.097656-5.984374 1.738281-7.179687 4.625-1.195313 2.886718-.476563 6.210937 1.804687 8.347656l37.425782 35.015625c2.203125 2.058594 3.128906 4.9375 2.542968 7.894531-.589843 2.957032-2.546874 5.261719-5.367187 6.320313l-46.703125 17.550781h-38.71875c-4.140625 0-7.5 3.359375-7.5 7.5s3.359375 7.5 7.5 7.5h38.71875l46.703125 17.546875c2.820313 1.0625 4.777344 3.367187 5.367187 6.324219.589844 2.957031-.335937 5.835937-2.539062 7.894531l-37.429688 35.015625c-2.28125 2.136719-3 5.460938-1.804687 8.347656 1.199219 2.886719 4.054687 4.726563 7.179687 4.625l51.226563-1.707031c3.011719-.09375 5.703125 1.28125 7.378906 3.789063 1.671875 2.507812 1.921875 5.519531.675781 8.265624l-20.617187 45.433594-27.378906 27.378906c-2.925781 2.929688-2.925781 7.675782 0 10.605469 1.464843 1.464844 3.386719 2.195313 5.304687 2.195313 1.917969 0 3.839844-.730469 5.304688-2.195313l27.375-27.378906 45.433594-20.617187c2.746093-1.246094 5.757812-1 8.265624.675781 2.507813 1.675781 3.886719 4.367187 3.789063 7.378906l-1.707031 51.226563c-.105469 3.121093 1.738281 5.980468 4.625 7.175781 2.886718 1.195312 6.214844.480469 8.347656-1.804688l35.015625-37.425781c2.0625-2.203125 4.9375-3.128906 7.898437-2.539062 2.957032.585937 5.261719 2.542968 6.320313 5.367187l17.546875 46.703125v38.71875c0 4.140625 3.359375 7.5 7.5 7.5 4.144531 0 7.5-3.359375 7.5-7.5v-38.71875l17.550781-46.703125c1.058594-2.824219 3.363281-4.777344 6.320313-5.367187 2.957031-.589844 5.835937.335937 7.894531 2.539062l35.019531 37.429688c2.132813 2.28125 5.460938 3 8.347656 1.804687 2.886719-1.195313 4.726563-4.054687 4.625-7.179687l-1.707031-51.226563c-.101562-3.011719 1.28125-5.699219 3.789063-7.375 2.507812-1.675781 5.519531-1.921875 8.265625-.675781l45.433593 20.617187 27.375 27.375c1.464844 1.464844 3.386719 2.199219 5.304688 2.199219s3.839844-.734375 5.300781-2.199219c2.929688-2.925781 2.929688-7.675781 0-10.605469l-27.375-27.378906-20.617187-45.429687c-1.246094-2.746094-1-5.761719.675781-8.265625 1.675781-2.507813 4.375-3.890625 7.378906-3.789063l51.226563 1.707031c3.117187.097657 5.980468-1.742187 7.175781-4.625 1.199219-2.890624.480469-6.214843-1.804687-8.347656l-37.425782-35.015625c-2.203125-2.0625-3.125-4.941406-2.539062-7.898437.585937-2.957032 2.542968-5.261719 5.367187-6.320313l46.703125-17.546875h38.714844c4.140625 0 7.5-3.359375 7.5-7.5 0-4.144531-3.359375-7.503906-7.5-7.503906zm-90.695312 18.507812c-7.671876 2.882813-13.207032 9.398438-14.804688 17.4375-1.597656 8.035157 1.019531 16.175782 7.003906 21.773438l22.851563 21.378906-31.277344-1.039062c-8.191406-.273438-15.796875 3.632812-20.347656 10.445312-4.554688 6.8125-5.25 15.335938-1.863281 22.796875l12.929687 28.496094-28.496094-12.929687c-7.460937-3.386719-15.984375-2.691407-22.796875 1.863281-6.8125 4.550781-10.71875 12.15625-10.445312 20.347656l1.039062 31.277344-21.378906-22.851563c-5.597656-5.984375-13.734375-8.605468-21.773438-7.003906-8.039062 1.597656-14.554687 7.132812-17.4375 14.800781l-11.007812 29.296875-11.007812-29.292968c-2.878907-7.671876-9.398438-13.207032-17.4375-14.804688-1.550782-.308594-3.109376-.460938-4.652344-.460938-6.433594 0-12.605469 2.636719-17.121094 7.464844l-21.378906 22.851563 1.039062-31.277344c.273438-8.1875-3.628906-15.796875-10.445312-20.347656-6.8125-4.554688-15.335938-5.25-22.796875-1.863281l-28.496094 12.929687 12.929687-28.496094c3.386719-7.460937 2.691407-15.984375-1.863281-22.796875-4.550781-6.8125-12.164062-10.726562-20.347656-10.445312l-31.277344 1.042968 22.851563-21.378906c5.984375-5.601562 8.601562-13.738281 7.003906-21.777344-1.597656-8.035156-7.132812-14.554687-14.804688-17.4375l-29.292968-11.007812 29.292968-11.007812c7.671876-2.882813 13.207032-9.398438 14.804688-17.4375 1.597656-8.035157-1.019531-16.175782-7.003906-21.773438l-22.851563-21.378906 31.277344 1.039062c8.191406.28125 15.796875-3.632812 20.347656-10.445312 4.554688-6.8125 5.25-15.335938 1.863281-22.796875l-12.929687-28.496094 28.496094 12.929687c7.460937 3.386719 15.984375 2.691407 22.796875-1.863281 6.8125-4.550781 10.71875-12.15625 10.445312-20.347656l-1.039062-31.277344 21.378906 22.851563c5.597656 5.984375 13.734375 8.605468 21.773438 7.003906 8.039062-1.597656 14.554687-7.132812 17.4375-14.800781l11.007812-29.296875 11.007812 29.292968c2.878907 7.671876 9.398438 13.207032 17.4375 14.804688 8.039063 1.601562 16.175782-1.019531 21.773438-7.003906l21.378906-22.851563-1.042968 31.277344c-.269532 8.1875 3.632812 15.796875 10.449218 20.347656 6.8125 4.550781 15.332032 5.25 22.796875 1.863281l28.496094-12.929687-12.929687 28.496094c-3.386719 7.460937-2.691407 15.984375 1.863281 22.796875 4.550781 6.8125 12.140625 10.714844 20.347656 10.445312l31.277344-1.042968-22.851563 21.378906c-5.984375 5.601562-8.605468 13.738281-7.003906 21.777344 1.597656 8.035156 7.132812 14.554687 14.800781 17.4375l29.296875 11.007812zm0 0" data-original="#000000" class="active-path" data-old_color="#000000" fill="#FFFFFF"/><path d="m335.632812 188.558594c-3.34375 2.445312-4.070312 7.136718-1.621093 10.480468 13.484375 18.429688 20.015625 41.175782 18.382812 64.050782-1.652343 23.113281-11.597656 44.882812-28.011719 61.292968-16.410156 16.414063-38.179687 26.359376-61.292968 28.011719-22.867188 1.632813-45.621094-4.894531-64.050782-18.382812-3.34375-2.445313-8.035156-1.722657-10.480468 1.621093-2.445313 3.34375-1.71875 8.035157 1.621094 10.480469 19.148437 14.015625 42.320312 21.527344 66.003906 21.527344 2.652344 0 5.3125-.09375 7.976562-.285156 26.710938-1.910157 51.867188-13.402344 70.832032-32.367188 18.960937-18.960937 30.457031-44.117187 32.363281-70.832031 1.886719-26.410156-5.65625-52.683594-21.238281-73.976562-2.449219-3.339844-7.140626-4.070313-10.484376-1.621094zm0 0" data-original="#000000" class="active-path" data-old_color="#000000" fill="#FFFFFF"/><path d="m187.617188 187.617188c16.410156-16.414063 38.179687-26.359376 61.292968-28.011719 22.871094-1.632813 45.621094 4.894531 64.050782 18.382812 3.339843 2.445313 8.035156 1.722657 10.480468-1.621093 2.445313-3.34375 1.71875-8.035157-1.621094-10.480469-21.292968-15.585938-47.5625-23.128907-73.980468-21.242188-26.710938 1.910157-51.867188 13.402344-70.832032 32.367188-18.960937 18.960937-30.457031 44.117187-32.363281 70.832031-1.886719 26.410156 5.65625 52.683594 21.238281 73.976562 1.46875 2.007813 3.75 3.070313 6.058594 3.070313 1.535156 0 3.085938-.46875 4.421875-1.449219 3.34375-2.445312 4.070313-7.136718 1.625-10.480468-13.488281-18.429688-20.015625-41.175782-18.382812-64.050782 1.652343-23.113281 11.597656-44.882812 28.011719-61.292968zm0 0" data-original="#000000" class="active-path" data-old_color="#000000" fill="#FFFFFF"/></g> </svg>
