<?xml version="1.0"?>
<svg xmlns="http://www.w3.org/2000/svg" height="512px" viewBox="-4 0 511 511.99999" width="512px" class=""><g><path d="m133.863281 331.515625-8.824219 17.65625c-2.214843 4.34375-.488281 9.65625 3.855469 11.871094 4.34375 2.214843 9.660157.484375 11.871094-3.859375.023437-.039063.042969-.082032.0625-.121094l8.828125-17.65625c2.210938-4.34375.484375-9.65625-3.859375-11.871094-4.34375-2.210937-9.65625-.484375-11.871094 3.859375-.019531.039063-.042969.082031-.0625.121094zm0 0" data-original="#000000" class="active-path" data-old_color="#000000" fill="#FFFFFF"/><path d="m75.09375 327.519531c-4.359375-2.179687-9.664062-.414062-11.84375 3.945313 0 .003906 0 .003906-.003906.007812l-8.824219 17.652344c-2.214844 4.34375-.484375 9.660156 3.855469 11.875 4.347656 2.210938 9.660156.484375 11.875-3.859375.019531-.039063.039062-.082031.058594-.121094l8.828124-17.65625c2.183594-4.359375.417969-9.660156-3.941406-11.84375zm0 0" data-original="#000000" class="active-path" data-old_color="#000000" fill="#FFFFFF"/><path d="m107.382812 384.480469-8.828124 17.652343c-2.210938 4.34375-.484376 9.660157 3.859374 11.871094 4.34375 2.214844 9.660157.488282 11.871094-3.859375.023438-.039062.042969-.078125.0625-.121093l8.828125-17.652344c2.210938-4.34375.484375-9.660156-3.859375-11.875-4.34375-2.210938-9.660156-.484375-11.871094 3.859375-.023437.042969-.042968.082031-.0625.125zm0 0" data-original="#000000" class="active-path" data-old_color="#000000" fill="#FFFFFF"/><path d="m36.765625 384.480469-8.824219 17.652343c-2.214844 4.34375-.488281 9.660157 3.855469 11.871094 4.34375 2.214844 9.660156.488282 11.875-3.855468.019531-.042969.039063-.082032.058594-.125l8.828125-17.652344c2.210937-4.34375.484375-9.660156-3.859375-11.871094-4.34375-2.214844-9.65625-.488281-11.871094 3.855469-.019531.042969-.042969.082031-.0625.125zm0 0" data-original="#000000" class="active-path" data-old_color="#000000" fill="#FFFFFF"/><path d="m76.03125 466.984375c4.359375 2.175781 9.65625.40625 11.835938-3.953125l8.824218-17.65625c2.214844-4.34375.488282-9.65625-3.855468-11.871094-4.34375-2.210937-9.660157-.484375-11.871094 3.859375-.023438.039063-.042969.082031-.0625.121094l-8.828125 17.65625c-2.179688 4.359375-.410157 9.660156 3.949219 11.839844 0 .003906.003906.003906.007812.003906zm0 0" data-original="#000000" class="active-path" data-old_color="#000000" fill="#FFFFFF"/><path d="m5.414062 466.984375c4.367188 2.164063 9.664063.375 11.824219-3.996094.003907 0 .003907 0 .003907-.003906l8.824218-17.652344c2.214844-4.34375.488282-9.660156-3.855468-11.871093-4.34375-2.214844-9.660157-.488282-11.871094 3.855468-.023438.042969-.042969.082032-.0625.125l-8.828125 17.652344c-2.195313 4.351562-.449219 9.660156 3.902343 11.859375.019532.011719.039063.023437.0625.03125zm0 0" data-original="#000000" class="active-path" data-old_color="#000000" fill="#FFFFFF"/><path d="m442.8125 331.515625-8.828125 17.65625c-2.214844 4.34375-.484375 9.65625 3.859375 11.871094 4.34375 2.210937 9.660156.484375 11.871094-3.859375.019531-.039063.039062-.082032.058594-.121094l8.828124-17.65625c2.214844-4.34375.484376-9.65625-3.859374-11.871094-4.34375-2.210937-9.660157-.484375-11.871094 3.859375-.019532.042969-.039063.082031-.058594.121094zm0 0" data-original="#000000" class="active-path" data-old_color="#000000" fill="#FFFFFF"/><path d="m384.039062 327.519531c-4.359374-2.179687-9.660156-.414062-11.839843 3.945313-.003907.003906-.003907.003906-.003907.007812l-8.828124 17.652344c-2.210938 4.34375-.484376 9.660156 3.859374 11.875 4.34375 2.210938 9.660157.484375 11.871094-3.859375.019532-.042969.042969-.082031.0625-.121094l8.824219-17.65625c2.183594-4.359375.417969-9.660156-3.941406-11.84375 0 0 0 0-.003907 0zm0 0" data-original="#000000" class="active-path" data-old_color="#000000" fill="#FFFFFF"/><path d="m416.328125 384.480469-8.824219 17.652343c-2.214844 4.34375-.484375 9.660157 3.859375 11.871094 4.34375 2.214844 9.65625.484375 11.871094-3.859375.019531-.039062.039063-.078125.058594-.121093l8.828125-17.652344c2.210937-4.34375.484375-9.660156-3.859375-11.871094-4.34375-2.214844-9.660157-.488281-11.871094 3.859375-.019531.039063-.042969.078125-.0625.121094zm0 0" data-original="#000000" class="active-path" data-old_color="#000000" fill="#FFFFFF"/><path d="m345.714844 384.480469-8.828125 17.652343c-2.214844 4.34375-.484375 9.660157 3.859375 11.871094 4.34375 2.214844 9.660156.484375 11.871094-3.859375.019531-.039062.039062-.078125.058593-.121093l8.828125-17.652344c2.214844-4.34375.484375-9.660156-3.859375-11.871094-4.34375-2.214844-9.660156-.488281-11.871093 3.859375-.019532.039063-.039063.078125-.058594.121094zm0 0" data-original="#000000" class="active-path" data-old_color="#000000" fill="#FFFFFF"/><path d="m384.976562 466.984375c4.359376 2.175781 9.660157.40625 11.835938-3.953125l8.828125-17.65625c2.210937-4.34375.484375-9.65625-3.859375-11.871094-4.34375-2.210937-9.660156-.484375-11.871094 3.859375-.023437.039063-.042968.082031-.0625.121094l-8.828125 17.65625c-2.179687 4.359375-.410156 9.660156 3.949219 11.839844.003906.003906.003906.003906.007812.003906zm0 0" data-original="#000000" class="active-path" data-old_color="#000000" fill="#FFFFFF"/><path d="m319.230469 437.441406-8.824219 17.652344c-2.214844 4.34375-.484375 9.660156 3.859375 11.875 4.34375 2.210938 9.65625.484375 11.871094-3.859375.019531-.042969.039062-.082031.058593-.121094l8.828126-17.65625c2.210937-4.34375.484374-9.660156-3.859376-11.871093-4.34375-2.210938-9.660156-.484376-11.871093 3.859374-.019531.039063-.039063.082032-.0625.121094zm0 0" data-original="#000000" class="active-path" data-old_color="#000000" fill="#FFFFFF"/><path d="m196.925781 54.9375-4.414062-17.085938c-35.085938 9.046876-59.597657 40.699219-59.574219 76.933594h17.652344c-.007813-28.179687 19.050781-52.796875 46.335937-59.847656zm0 0" data-original="#000000" class="active-path" data-old_color="#000000" fill="#FFFFFF"/><path d="m397.75 238.363281h35.304688v17.65625h-35.304688zm0 0" data-original="#000000" class="active-path" data-old_color="#000000" fill="#FFFFFF"/><path d="m362.441406 238.363281h17.652344v17.65625h-17.652344zm0 0" data-original="#000000" class="active-path" data-old_color="#000000" fill="#FFFFFF"/><path d="m124.109375 238.363281h35.308594v17.65625h-35.308594zm0 0" data-original="#000000" class="active-path" data-old_color="#000000" fill="#FFFFFF"/><path d="m88.800781 238.363281h17.65625v17.65625h-17.65625zm0 0" data-original="#000000" class="active-path" data-old_color="#000000" fill="#FFFFFF"/><path d="m106.457031 291.328125h93.847657l-22.949219 85.992187c-1.257813 4.710938 1.539062 9.546876 6.25 10.804688.75.199219 1.519531.300781 2.292969.300781h31.609374l-39.921874 111.785157c-1.636719 4.589843.757812 9.640624 5.351562 11.277343 3.585938 1.277344 7.585938.109375 9.925781-2.894531l123.578125-158.882812c2.996094-3.851563 2.300782-9.394532-1.546875-12.390626-1.546875-1.203124-3.453125-1.855468-5.417969-1.859374h-39.71875l20.300782-44.132813h134.171875c43.855469-.050781 79.394531-35.589844 79.441406-79.445313v-8.824218c-.046875-43.855469-35.585937-79.398438-79.441406-79.445313h-9.964844c-7.210937-45.644531-50.058594-76.804687-95.703125-69.59375-6.816406 1.078125-13.472656 2.992188-19.816406 5.703125-25.492188-52.609375-88.808594-74.597656-141.417969-49.105468-36.539063 17.703124-59.730469 54.742187-59.699219 95.339843v18.140625c-40.1875 4.546875-70.566406 38.515625-70.617187 78.957032v8.828124c.050781 43.855469 35.589843 79.394532 79.445312 79.445313zm141.488281 49.273437c-2.039062 4.425782-.101562 9.667969 4.328126 11.707032 1.15625.53125 2.414062.808594 3.6875.808594h35.464843l-78.699219 101.191406 25.597657-71.746094c1.636719-4.589844-.757813-9.640625-5.347657-11.277344-.945312-.339844-1.941406-.511718-2.941406-.515625h-32.660156l30.59375-114.75h58.878906zm-203.277343-137.542968c.039062-34.109375 27.679687-61.753906 61.789062-61.792969h8.824219v-35.304687c-.039062-48.71875 39.417969-88.246094 88.132812-88.285157 36.78125-.03125 69.722657 22.761719 82.65625 57.195313l3.660157 9.710937 8.988281-5.15625c31.617188-18.183593 71.992188-7.292969 90.175781 24.328125 5.132813 8.925782 8.105469 18.925782 8.6875 29.207032l.484375 8.316406h26.207032c34.109374.039062 61.75 27.679687 61.789062 61.789062v8.824219c-.039062 34.109375-27.679688 61.75-61.789062 61.789063h-126.09375l10.484374-22.789063c2.042969-4.425781.113282-9.671875-4.3125-11.714844-1.160156-.535156-2.421874-.8125-3.699218-.8125h-79.445313c-3.996093 0-7.496093 2.6875-8.527343 6.550781l-7.667969 28.757813h-98.554688c-34.109375-.039063-61.75-27.679687-61.789062-61.789063zm0 0" data-original="#000000" class="active-path" data-old_color="#000000" fill="#FFFFFF"/></g> </svg>
