<?xml version="1.0"?>
<svg xmlns="http://www.w3.org/2000/svg" height="512px" viewBox="0 0 511 511.99818" width="512px"><g><path d="m135.496094 430.035156h-34.015625l17.007812-29.460937c4.144531-7.171875 1.683594-16.347657-5.488281-20.488281-7.175781-4.144532-16.351562-1.683594-20.492188 5.488281l-17.007812 29.464843-17.011719-29.464843c-4.140625-7.171875-13.3125-9.628907-20.488281-5.488281-7.175781 4.140624-9.632812 13.316406-5.492188 20.488281l17.011719 29.460937h-34.019531c-8.285156 0-15 6.71875-15 15 0 8.285156 6.714844 15 15 15h34.015625l-17.007813 29.460938c-4.144531 7.175781-1.683593 16.347656 5.488282 20.488281 2.363281 1.367187 4.941406 2.015625 7.488281 2.015625 5.183594 0 10.226563-2.691406 13.003906-7.503906l17.007813-29.460938 17.011718 29.460938c2.777344 4.8125 7.820313 7.503906 13.003907 7.503906 2.542969 0 5.125-.648438 7.484375-2.015625 7.175781-4.140625 9.632812-13.3125 5.492187-20.488281l-17.011719-29.460938h34.019532c8.285156 0 15-6.714844 15-15 0-8.28125-6.714844-15-15-15zm0 0" data-original="#000000" class="active-path" data-old_color="#000000" fill="#FFFFFF"/><path d="m407.496094 109.972656h19.019531l-9.511719 16.472656c-4.144531 7.171876-1.683594 16.347657 5.492188 20.488282 2.359375 1.363281 4.9375 2.011718 7.484375 2.011718 5.183593 0 10.226562-2.691406 13.003906-7.5l9.507813-16.472656 9.511718 16.472656c2.777344 4.8125 7.820313 7.5 13.003906 7.5 2.542969 0 5.125-.648437 7.484376-2.011718 7.175781-4.140625 9.632812-13.316406 5.492187-20.488282l-9.511719-16.472656h19.019532c8.285156 0 15-6.714844 15-15s-6.714844-15-15-15h-19.019532l9.511719-16.46875c4.140625-7.175781 1.683594-16.347656-5.492187-20.492187-7.171876-4.144531-16.347657-1.683594-20.488282 5.492187l-9.511718 16.46875-9.507813-16.46875c-4.144531-7.175781-13.316406-9.632812-20.488281-5.492187-7.175782 4.144531-9.636719 13.316406-5.492188 20.492187l9.511719 16.46875h-19.019531c-8.285156 0-15 6.714844-15 15s6.714844 15 15 15zm0 0" data-original="#000000" class="active-path" data-old_color="#000000" fill="#FFFFFF"/><path d="m82.5 68.972656h19.015625l-9.507813 16.472656c-4.144531 7.171876-1.6875 16.347657 5.488282 20.488282 2.363281 1.363281 4.941406 2.011718 7.488281 2.011718 5.183594 0 10.222656-2.6875 13.003906-7.5l9.507813-16.472656 9.511718 16.472656c2.777344 4.8125 7.820313 7.5 13.003907 7.5 2.542969 0 5.121093-.648437 7.484375-2.011718 7.175781-4.140625 9.632812-13.316406 5.488281-20.488282l-9.507813-16.472656h19.019532c8.28125 0 15-6.714844 15-15 0-8.28125-6.71875-15-15-15h-19.019532l9.507813-16.46875c4.144531-7.175781 1.6875-16.347656-5.488281-20.492187-7.175782-4.140625-16.347656-1.683594-20.488282 5.492187l-9.511718 16.46875-9.507813-16.46875c-4.144531-7.175781-13.316406-9.632812-20.492187-5.492187-7.175782 4.144531-9.632813 13.316406-5.488282 20.492187l9.507813 16.46875h-19.015625c-8.285156 0-15 6.71875-15 15 0 8.285156 6.714844 15 15 15zm0 0" data-original="#000000" class="active-path" data-old_color="#000000" fill="#FFFFFF"/><path d="m357.496094 276c0 8.28125 6.714844 15 15 15h89.996094c8.285156 0 15-6.71875 15-15 0-8.285156-6.714844-15-15-15h-89.996094c-8.285156 0-15 6.714844-15 15zm0 0" data-original="#000000" class="active-path" data-old_color="#000000" fill="#FFFFFF"/><path d="m497.492188 201h-40c-8.28125 0-15 6.714844-15 15s6.71875 15 15 15h40c8.285156 0 15-6.714844 15-15s-6.714844-15-15-15zm0 0" data-original="#000000" class="active-path" data-old_color="#000000" fill="#FFFFFF"/><path d="m457.492188 420.996094c0 8.285156-6.714844 15-15 15-8.28125 0-15-6.714844-15-15 0-8.28125 6.71875-15 15-15 8.285156 0 15 6.71875 15 15zm0 0" data-original="#000000" class="active-path" data-old_color="#000000" fill="#FFFFFF"/><path d="m367.496094 496.996094c0 8.285156-6.71875 15-15 15-8.285156 0-15-6.714844-15-15s6.714844-15 15-15c8.28125 0 15 6.714844 15 15zm0 0" data-original="#000000" class="active-path" data-old_color="#000000" fill="#FFFFFF"/><path d="m177.496094 355.996094c0 8.285156-6.714844 15-15 15-8.28125 0-15-6.714844-15-15 0-8.28125 6.71875-14.996094 15-14.996094 8.285156 0 15 6.714844 15 14.996094zm0 0" data-original="#000000" class="active-path" data-old_color="#000000" fill="#FFFFFF"/><path d="m317.496094 66c0 8.285156-6.714844 15-15 15s-15-6.714844-15-15c0-8.28125 6.714844-15 15-15s15 6.71875 15 15zm0 0" data-original="#000000" class="active-path" data-old_color="#000000" fill="#FFFFFF"/><path d="m30.5 146c0 8.285156-6.71875 15-15 15-8.285156 0-15-6.714844-15-15s6.714844-15 15-15c8.28125 0 15 6.714844 15 15zm0 0" data-original="#000000" class="active-path" data-old_color="#000000" fill="#FFFFFF"/><path d="m497.492188 321h-214.996094c-33.082032 0-60 26.914062-60 59.996094 0 33.085937 26.917968 60 60 60 8.285156 0 15-6.714844 15-15 0-8.28125-6.714844-15-15-15-16.542969 0-30-13.457032-30-30 0-16.539063 13.457031-29.996094 30-29.996094h214.996094c8.285156 0 15-6.71875 15-15 0-8.285156-6.714844-15-15-15zm0 0" data-original="#000000" class="active-path" data-old_color="#000000" fill="#FFFFFF"/><path d="m257.496094 231h140c8.28125 0 15-6.714844 15-15s-6.71875-15-15-15h-140c-8.269532 0-15-6.730469-15-15s6.730468-15 15-15c8.285156 0 15-6.714844 15-15s-6.714844-15-15-15c-24.8125 0-45 20.1875-45 45s20.1875 45 45 45zm0 0" data-original="#000000" class="active-path" data-old_color="#000000" fill="#FFFFFF"/><path d="m117.496094 291h185c8.285156 0 15-6.71875 15-15 0-8.285156-6.714844-15-15-15h-185c-16.539063 0-29.996094-13.457031-29.996094-30s13.457031-30 29.996094-30c16.542968 0 30 13.457031 30 30 0 8.285156 6.71875 15 15 15 8.285156 0 15-6.714844 15-15 0-33.085938-26.914063-60-60-60-33.082032 0-59.996094 26.914062-59.996094 60 0 33.082031 26.914062 60 59.996094 60zm0 0" data-original="#000000" class="active-path" data-old_color="#000000" fill="#FFFFFF"/></g> </svg>
