<?xml version="1.0"?>
<svg xmlns="http://www.w3.org/2000/svg" id="snowflake" enable-background="new 0 0 300 300" height="512px" viewBox="0 0 300 300" width="512px" class=""><g><path d="m152.304 131.174c-12.588 0-22.828 10.24-22.828 22.828s10.24 22.828 22.828 22.828 22.828-10.24 22.828-22.828-10.24-22.828-22.828-22.828zm0 37.656c-8.176 0-14.828-6.652-14.828-14.828s6.652-14.828 14.828-14.828 14.828 6.652 14.828 14.828-6.652 14.828-14.828 14.828z" data-original="#000000" class="active-path" data-old_color="#000000" fill="#FFFFFF"/><path d="m271.763 151.248c-1.092-6.273-6.246-11.424-12.537-12.525-4.67-.824-9.363.512-12.887 3.582h-5.967l.143-.143c3.99-3.99 3.99-10.48 0-14.471-3.988-3.992-10.482-3.986-14.471 0l-14.611 14.613h-24.506c-.623-1.856-1.435-3.611-2.328-5.315l19.31-18.685h22.092c5.514 0 10-4.486 10-10s-4.486-10-10-10h-1.422l7.086-6.857c4.424.357 8.807-1.164 12.047-4.301 3.314-3.207 5.021-7.686 4.686-12.287-.336-4.598-2.701-8.801-6.49-11.525-5.107-3.674-12.08-3.84-17.354-.42-4.744 3.082-7.391 8.338-7.119 13.826l-5.434 5.258v-1.693c0-5.514-4.486-10-10-10s-10 4.486-10 10v21.047l-21.629 20.929c-2.017-1.144-4.128-2.148-6.371-2.901v-24.507l14.613-14.611c3.99-3.99 3.99-10.48 0-14.473-3.992-3.99-10.482-3.988-14.471.002l-.143.143v-5.967c3.068-3.52 4.4-8.211 3.582-12.883-1.102-6.291-6.25-11.447-12.523-12.541-4.572-.787-9.225.445-12.74 3.4-3.518 2.957-5.535 7.289-5.535 11.881 0 3.434 1.133 6.723 3.217 9.428v6.102c-4.012-3.545-10.168-3.4-14.006.438-3.99 3.99-3.99 10.48 0 14.471l14.006 14.006v25.326c-2.019.719-3.92 1.657-5.752 2.699l-21.642-20.941v-21.048c0-5.514-4.486-10-10-10s-10 4.486-10 10v1.693l-5.434-5.258c.273-5.49-2.375-10.746-7.117-13.824-5.271-3.426-12.246-3.262-17.354.418-3.791 2.727-6.156 6.93-6.492 11.527-.334 4.604 1.373 9.08 4.688 12.287 3.24 3.137 7.625 4.682 12.047 4.299l7.086 6.857h-1.424c-5.514 0-10 4.486-10 10s4.486 10 10 10h22.092l19.317 18.692c-.896 1.703-1.709 3.456-2.333 5.308h-24.506l-14.613-14.613c-3.988-3.988-10.48-3.988-14.469 0-3.99 3.99-3.99 10.48 0 14.471l.143.143h-5.969c-3.516-3.068-8.209-4.396-12.883-3.582-6.293 1.102-11.449 6.252-12.539 12.523-.797 4.582.443 9.227 3.4 12.742s7.287 5.533 11.879 5.533c3.402 0 6.709-1.15 9.402-3.217h6.129c-3.547 4.014-3.4 10.168.437 14.006 3.988 3.988 10.48 3.988 14.469 0l14.006-14.006h25.328c.584 1.633 1.317 3.188 2.116 4.704l-20.142 19.49-21.736-.357c-2.68-.049-5.201.955-7.119 2.812s-3 4.352-3.045 7.021c-.043 2.67.955 5.199 2.812 7.119 1.857 1.918 4.352 3 7.021 3.045l1.742.027-6.605 6.391c-5.459-.459-10.818 2.02-14.053 6.658-3.596 5.156-3.656 12.131-.152 17.355 2.6 3.879 6.723 6.383 11.309 6.869.553.059 1.104.088 1.652.088 4.01 0 7.869-1.547 10.783-4.367 3.24-3.137 4.916-7.459 4.691-11.898l8.754-8.469-.02 1.15c-.09 5.564 4.363 10.168 9.932 10.262 2.709.006 5.248-.965 7.188-2.842 1.938-1.875 3.029-4.395 3.074-7.09l.352-21.342 17.801-17.225c1.832 1.044 3.734 1.981 5.748 2.701v25.328l-14.006 14.006c-1.934 1.932-2.998 4.502-2.998 7.234s1.064 5.303 2.998 7.234c3.834 3.834 9.99 3.986 14.006.438v6.098c-2.748 3.555-3.805 8.041-2.906 12.551 1.23 6.188 6.23 11.074 12.443 12.158.914.16 1.83.24 2.742.24 3.65-.002 7.189-1.266 10.006-3.633 3.52-2.957 5.537-7.289 5.537-11.883 0-3.723-1.375-7.328-3.822-10.141v-5.971l.143.143c3.984 3.984 10.475 3.988 14.471 0 1.934-1.932 2.996-4.502 2.996-7.234s-1.062-5.303-2.996-7.234l-14.613-14.613v-24.506c2.238-.754 4.349-1.758 6.366-2.905l17.789 17.214.354 21.441c.092 5.512 4.764 9.871 10.361 9.83 2.67-.045 5.164-1.127 7.021-3.047 1.855-1.918 2.854-4.447 2.811-7.117l-.021-1.246 8.754 8.469c-.225 4.439 1.453 8.764 4.693 11.898 2.914 2.82 6.773 4.367 10.783 4.367.547 0 1.1-.029 1.65-.088 4.586-.486 8.707-2.988 11.309-6.867 3.504-5.227 3.443-12.201-.152-17.355-3.232-4.641-8.566-7.119-14.053-6.66l-6.604-6.391 1.74-.027c2.67-.045 5.164-1.127 7.021-3.045 1.857-1.92 2.855-4.447 2.812-7.119-.092-5.512-4.609-9.775-10.164-9.834l-21.736.357-20.135-19.482c.797-1.516 1.528-3.073 2.112-4.71h25.326l14.006 14.006c3.992 3.996 10.486 3.992 14.471 0 3.838-3.838 3.984-9.992.438-14.006h6.102c2.705 2.084 5.994 3.217 9.428 3.217 4.592 0 8.922-2.018 11.879-5.533 2.958-3.515 4.196-8.158 3.401-12.74zm-72.98-45.326c.779-.754 1.219-1.791 1.219-2.875v-22.742c0-1.104.896-2 2-2s2 .896 2 2v11.131c0 1.605.961 3.057 2.439 3.684 1.475.623 3.188.307 4.342-.809l13.639-13.197c.977-.945 1.406-2.32 1.143-3.652-.48-2.426.146-5.758 3.348-7.838 2.488-1.617 5.908-1.533 8.322.205 1.889 1.357 3.02 3.352 3.186 5.613.162 2.232-.664 4.404-2.27 5.957-1.832 1.775-4.432 2.492-6.936 1.9-1.33-.312-2.711.08-3.688 1.021l-15.615 15.11c-1.172 1.133-1.537 2.865-.926 4.375.609 1.512 2.078 2.5 3.707 2.5h11.309c1.104 0 2 .896 2 2s-.896 2-2 2h-23.712c-1.039 0-2.035.404-2.781 1.125l-19.458 18.828c-.969-1.134-2.007-2.199-3.107-3.205zm-93.684 5.508c-.746-.721-1.742-1.125-2.781-1.125h-23.711c-1.104 0-2-.896-2-2s.896-2 2-2h11.311c1.629 0 3.098-.988 3.707-2.5.611-1.51.246-3.242-.926-4.375l-15.616-15.11c-.973-.943-2.359-1.332-3.688-1.021-2.51.592-5.102-.125-6.936-1.9-1.605-1.553-2.434-3.725-2.27-5.955.164-2.264 1.295-4.258 3.184-5.617 2.414-1.734 5.836-1.822 8.324-.201 3.199 2.076 3.826 5.41 3.346 7.836-.264 1.332.166 2.707 1.143 3.652l13.639 13.197c1.152 1.115 2.861 1.432 4.342.809 1.479-.627 2.439-2.078 2.439-3.684v-11.131c0-1.104.896-2 2-2s2 .896 2 2v22.742c0 1.084.439 2.121 1.219 2.875l21.854 21.146c-1.101 1.006-2.137 2.073-3.106 3.206zm4.6 86.904c-.762.738-1.201 1.748-1.219 2.809l-.379 23c-.018 1.158-.934 2.068-2.131 2.062-1.156-.02-2.082-.977-2.062-2.131l.178-10.805c.025-1.619-.924-3.092-2.408-3.736-1.484-.641-3.207-.328-4.373.795l-17.117 16.562c-.977.945-1.406 2.32-1.143 3.652.5 2.527-.293 5.096-2.125 6.867-1.605 1.553-3.805 2.295-6.029 2.074-2.256-.238-4.211-1.436-5.508-3.369-1.656-2.467-1.627-5.891.07-8.324 2.182-3.129 5.545-3.643 7.943-3.086 1.326.311 2.713-.076 3.688-1.021l14.967-14.482c1.162-1.125 1.533-2.84.939-4.346-.596-1.504-2.037-2.502-3.654-2.529l-11.396-.188c-.721-.012-1.189-.387-1.404-.609s-.574-.703-.562-1.422c.012-.721.387-1.189.609-1.404s.725-.514 1.422-.562l23.393.385c1.172.002 2.086-.387 2.848-1.125l20.335-19.676c.97 1.133 2.01 2.197 3.11 3.203zm90.666-.934c.762.738 1.73 1.146 2.848 1.125l23.393-.385h.033c1.088 0 1.98.875 1.998 1.967.012.721-.346 1.201-.562 1.422-.215.223-.684.598-1.404.609l-11.395.188c-1.617.027-3.059 1.025-3.654 2.529-.594 1.506-.223 3.221.939 4.346l14.967 14.482c.977.945 2.359 1.334 3.688 1.021 2.404-.572 5.76-.045 7.941 3.088 1.697 2.432 1.727 5.855.07 8.322-1.297 1.934-3.252 3.131-5.508 3.369-2.225.234-4.424-.521-6.027-2.074-1.832-1.773-2.627-4.34-2.127-6.867.264-1.332-.166-2.707-1.143-3.652l-17.117-16.562c-1.164-1.123-2.889-1.438-4.373-.795-1.484.645-2.434 2.119-2.408 3.736l.18 10.902c.012.721-.346 1.201-.562 1.424-.215.221-.682.596-1.6.609-1.16.029-2.014-.861-2.031-1.965l-.381-23.098c-.018-1.061-.457-2.07-1.219-2.809l-17.975-17.394c1.1-1.005 2.141-2.068 3.11-3.201zm61.875-38.562c-2.678 3.184-7.891 3.5-10.943.578-.744-.713-1.736-1.111-2.768-1.111h-17.207c-1.617 0-3.076.975-3.695 2.469-.619 1.496-.277 3.217.867 4.359l6.365 6.363c.871.871.871 2.287 0 3.158-.871.869-2.287.871-3.158 0l-15.178-15.178c-.75-.75-1.768-1.172-2.828-1.172h-29.928c-1.816 0-3.404 1.225-3.867 2.98-2.672 10.139-10.658 17.975-20.842 20.447-1.793.436-3.057 2.041-3.057 3.887v29.166c0 1.061.422 2.078 1.172 2.828l15.785 15.785c.869.871.869 2.285 0 3.154-.871.871-2.287.873-3.158.002l-6.971-6.971c-1.146-1.145-2.865-1.488-4.359-.867-1.494.619-2.469 2.078-2.469 3.695v17.252c0 1.131.479 2.209 1.318 2.967 1.615 1.461 2.504 3.43 2.504 5.549 0 2.227-.979 4.324-2.686 5.76-1.729 1.455-3.947 2.031-6.223 1.637-2.936-.514-5.393-2.914-5.975-5.842-.494-2.477.217-4.936 1.949-6.742.713-.744 1.111-1.736 1.111-2.768v-17.203c0-1.617-.975-3.076-2.469-3.695-.496-.205-1.016-.305-1.531-.305-1.041 0-2.062.406-2.828 1.172l-6.363 6.361c-.871.871-2.287.873-3.158.002-.869-.871-.869-2.285 0-3.156l15.178-15.178c.75-.75 1.172-1.768 1.172-2.828v-29.93c0-1.816-1.225-3.406-2.98-3.867-9.916-2.611-17.699-10.395-20.311-20.311-.461-1.756-2.051-2.98-3.867-2.98h-29.93c-1.061 0-2.078.422-2.828 1.172l-15.178 15.178c-.871.871-2.285.871-3.156 0s-.871-2.287 0-3.158l6.363-6.363c1.145-1.145 1.486-2.863.867-4.359-.619-1.494-2.078-2.469-3.695-2.469h-14.629c-.189-.113-.393-.213-.604-.295-1.533-.594-3.285-.184-4.4 1.035-2.998 3.283-8.49 3.111-11.283-.207-1.453-1.729-2.037-3.938-1.639-6.221.514-2.963 3.053-5.492 6.035-6.016 2.605-.453 5.129.412 6.908 2.385.76.84 1.838 1.318 2.969 1.318h17.252c1.617 0 3.076-.975 3.695-2.469.619-1.496.277-3.215-.867-4.359l-6.971-6.971c-.871-.871-.871-2.287 0-3.158s2.285-.871 3.156 0l15.785 15.785c.75.75 1.768 1.172 2.828 1.172h29.166c1.846 0 3.451-1.264 3.887-3.057 2.473-10.184 10.309-18.17 20.447-20.842 1.756-.463 2.98-2.051 2.98-3.867v-29.928c0-1.061-.422-2.078-1.172-2.828l-15.178-15.178c-.871-.871-.871-2.287 0-3.158.871-.875 2.287-.871 3.158 0l6.363 6.365c1.141 1.143 2.859 1.482 4.359.867 1.494-.619 2.469-2.078 2.469-3.695v-17.207c0-1.031-.398-2.023-1.111-2.768-1.357-1.416-2.105-3.258-2.105-5.186 0-2.225.979-4.324 2.684-5.76 1.729-1.453 3.934-2.045 6.219-1.639 2.965.516 5.494 3.055 6.018 6.037.455 2.607-.414 5.127-2.387 6.91-.838.758-1.316 1.836-1.316 2.967v17.25c0 1.617.975 3.076 2.469 3.695 1.494.617 3.213.277 4.359-.867l6.971-6.971c.871-.875 2.287-.871 3.158 0s.871 2.287 0 3.158l-15.785 15.783c-.75.75-1.172 1.768-1.172 2.828v29.168c0 1.846 1.264 3.451 3.057 3.887 10.412 2.527 18.449 10.564 20.977 20.977.436 1.793 2.041 3.057 3.887 3.057h29.168c1.061 0 2.078-.422 2.828-1.172l15.783-15.785c.871-.873 2.287-.873 3.158 0 .871.871.871 2.287 0 3.158l-6.971 6.971c-1.145 1.145-1.486 2.863-.867 4.359.619 1.494 2.078 2.469 3.695 2.469h17.25c1.131 0 2.209-.479 2.967-1.316 1.787-1.973 4.305-2.834 6.912-2.387 2.982.523 5.52 3.053 6.035 6.018.397 2.282-.185 4.491-1.64 6.22z" data-original="#000000" class="active-path" data-old_color="#000000" fill="#FFFFFF"/><path d="m195.517 50.789c.781.781 1.805 1.172 2.828 1.172s2.047-.391 2.828-1.172l2.828-2.828 2.828 2.828c.781.781 1.805 1.172 2.828 1.172s2.047-.391 2.828-1.172c1.562-1.562 1.562-4.094 0-5.656l-2.828-2.828 2.828-2.828c1.562-1.562 1.562-4.094 0-5.656s-4.094-1.562-5.656 0l-2.828 2.828-2.828-2.828c-1.562-1.562-4.094-1.562-5.656 0s-1.562 4.094 0 5.656l2.828 2.828-2.828 2.828c-1.562 1.562-1.562 4.094 0 5.656z" data-original="#000000" class="active-path" data-old_color="#000000" fill="#FFFFFF"/><path d="m31.517 54.789c.781.781 1.805 1.172 2.828 1.172s2.047-.391 2.828-1.172l2.828-2.828 2.828 2.828c.781.781 1.805 1.172 2.828 1.172s2.047-.391 2.828-1.172c1.562-1.562 1.562-4.094 0-5.656l-2.828-2.828 2.828-2.828c1.562-1.562 1.562-4.094 0-5.656s-4.094-1.562-5.656 0l-2.828 2.828-2.828-2.828c-1.562-1.562-4.094-1.562-5.656 0s-1.562 4.094 0 5.656l2.828 2.828-2.828 2.828c-1.562 1.562-1.562 4.094 0 5.656z" data-original="#000000" class="active-path" data-old_color="#000000" fill="#FFFFFF"/><path d="m208.486 249.82c-1.562-1.562-4.094-1.562-5.656 0l-2.828 2.828-2.828-2.828c-1.562-1.562-4.094-1.562-5.656 0s-1.562 4.094 0 5.656l2.828 2.828-2.828 2.828c-1.562 1.562-1.562 4.094 0 5.656.781.781 1.805 1.172 2.828 1.172s2.047-.391 2.828-1.172l2.828-2.828 2.828 2.828c.781.781 1.805 1.172 2.828 1.172s2.047-.391 2.828-1.172c1.562-1.562 1.562-4.094 0-5.656l-2.828-2.828 2.828-2.828c1.562-1.562 1.562-4.093 0-5.656z" data-original="#000000" class="active-path" data-old_color="#000000" fill="#FFFFFF"/><path d="m244.001 110.305c0 6.617 5.383 12 12 12s12-5.383 12-12-5.383-12-12-12-12 5.383-12 12zm16 0c0 2.205-1.795 4-4 4s-4-1.795-4-4 1.795-4 4-4 4 1.795 4 4z" data-original="#000000" class="active-path" data-old_color="#000000" fill="#FFFFFF"/><path d="m96.001 50.305c6.617 0 12-5.383 12-12s-5.383-12-12-12-12 5.383-12 12 5.383 12 12 12zm0-16c2.205 0 4 1.795 4 4s-1.795 4-4 4-4-1.795-4-4 1.795-4 4-4z" data-original="#000000" class="active-path" data-old_color="#000000" fill="#FFFFFF"/><path d="m40.001 190.305c-6.617 0-12 5.383-12 12s5.383 12 12 12 12-5.383 12-12-5.382-12-12-12zm0 16c-2.205 0-4-1.795-4-4s1.795-4 4-4 4 1.795 4 4-1.795 4-4 4z" data-original="#000000" class="active-path" data-old_color="#000000" fill="#FFFFFF"/><circle cx="256.001" cy="42.305" r="4.292" data-original="#000000" class="active-path" data-old_color="#000000" fill="#FFFFFF"/><circle cx="40.001" cy="98.305" r="4.292" data-original="#000000" class="active-path" data-old_color="#000000" fill="#FFFFFF"/><circle cx="108.001" cy="254.305" r="4.292" data-original="#000000" class="active-path" data-old_color="#000000" fill="#FFFFFF"/><circle cx="256.001" cy="202.305" r="4.292" data-original="#000000" class="active-path" data-old_color="#000000" fill="#FFFFFF"/></g> </svg>
